<?xml version="1.0" encoding="utf-8"?>
<!-- Generator: Adobe Illustrator 25.2.1, SVG Export Plug-In . SVG Version: 6.00 Build 0)  -->
<svg version="1.1" id="图层_1" xmlns="http://www.w3.org/2000/svg" xmlns:xlink="http://www.w3.org/1999/xlink" x="0px" y="0px"
	 viewBox="0 0 530 530" style="enable-background:new 0 0 530 530;" xml:space="preserve">
<style type="text/css">
	.st0{fill:#9FBFA9;}
	.st1{fill:#699E91;}
	.st2{fill:#17F700;}
</style>
<g>
	<g>
		<path class="st0" d="M496.9,85.2v197.5l-236.4,163H37.4c-14.3,0-25.9-11.6-25.9-25.9v-295l54.9-57.4h412.7
			C488.9,67.4,496.9,75.3,496.9,85.2z"/>
	</g>
	<g>
		<path class="st1" d="M518.5,282.8v168.4c0,6.3-5.1,11.4-11.4,11.4H262.7c-11.2,0-15.7-14.5-6.5-20.8l244.2-168.4
			C508.1,268.1,518.5,273.6,518.5,282.8z"/>
	</g>
	<g>
		<path class="st2" d="M455.1,418.5H53.3c-8.3,0-15.1-6.8-15.1-15.1V109.7c0-8.3,6.8-15.1,15.1-15.1H455c8.3,0,15.1,6.8,15.1,15.1
			v293.7C470.1,411.7,463.3,418.5,455.1,418.5z"/>
	</g>
</g>
</svg>
