<?xml version="1.0" encoding="utf-8"?>
<!-- Generator: Adobe Illustrator 25.2.1, SVG Export Plug-In . SVG Version: 6.00 Build 0)  -->
<svg version="1.1" id="图层_1" xmlns="http://www.w3.org/2000/svg" xmlns:xlink="http://www.w3.org/1999/xlink" x="0px" y="0px"
	 viewBox="0 0 1300 800" style="enable-background:new 0 0 1300 800;" xml:space="preserve">
<style type="text/css">
	.st0{fill:#F4FCE8;}
	.st1{fill:#9FBFA9;}
	.st2{fill:#171717;}
	.st3{fill:#E51515;}
	.st4{fill:#DFEFE6;}
	.st5{fill:#699E91;}
</style>
<g>
	<path class="st0" d="M912.1,214.9v213.3L656.8,604.3h-241c-15.4,0-27.9-12.5-27.9-27.9V257.7l59.3-62h445.7
		C903.5,195.7,912.1,204.3,912.1,214.9z"/>
	<path class="st1" d="M902.9,221.5v205.8L656.6,597.1H424.1c-14.9,0-27-12.1-27-27V262.7l57.2-59.8h430
		C894.6,202.9,902.9,211.2,902.9,221.5z"/>
	<g>
		<path class="st0" d="M513.9,610.4h-35c-2.8,0-5-2.2-5-5v-36.7h45v36.7C518.9,608.2,516.7,610.4,513.9,610.4z"/>
		<g>
			<path class="st2" d="M496.4,578.6c6.1,0,11,4.9,11,11s-4.9,11-11,11s-11-4.9-11-11C485.5,583.5,490.4,578.6,496.4,578.6
				 M496.4,575.1c-8,0-14.5,6.5-14.5,14.5s6.5,14.5,14.5,14.5s14.5-6.5,14.5-14.5S504.4,575.1,496.4,575.1L496.4,575.1z"/>
		</g>
	</g>
	<g>
		<path class="st0" d="M915.1,322H875v-41.7h40.1c2.7,0,4.9,2.2,4.9,4.9v32C920,319.9,917.8,322,915.1,322z"/>
		<g>
			<path d="M897.5,290.2c6.1,0,11,4.9,11,11s-4.9,11-11,11s-11-4.9-11-11S891.4,290.2,897.5,290.2 M897.5,286.7
				c-8,0-14.5,6.5-14.5,14.5s6.5,14.5,14.5,14.5s14.5-6.5,14.5-14.5S905.5,286.7,897.5,286.7L897.5,286.7z"/>
		</g>
	</g>
	<rect x="403.2" y="429.3" class="st2" width="15.5" height="101.3"/>
	<rect x="403.2" y="541.3" class="st3" width="15.5" height="16.1"/>
</g>
<g>
	<path class="st4" d="M930.1,417.9v188.4c0,7.1-5.7,12.8-12.8,12.8H653.1c-12.5,0-16.6-20.5-6.3-27.6L910,407.4
		C918.5,401.6,930.1,407.6,930.1,417.9z"/>
	<path class="st5" d="M925.4,427.4v175.5c0,6.6-5.3,11.9-11.9,11.9H658.9c-11.7,0-16.4-15.1-6.8-21.7l254.5-175.5
		C914.6,412.1,925.4,417.8,925.4,427.4z"/>
	<g>
		<path class="st2" d="M660.7,595.9c3.4,0,6.3,2.8,6.3,6.3s-2.8,6.3-6.3,6.3s-6.3-2.8-6.3-6.3S657.3,595.9,660.7,595.9 M660.7,593.9
			c-4.6,0-8.3,3.7-8.3,8.3s3.7,8.3,8.3,8.3s8.3-3.7,8.3-8.3C669,597.6,665.3,593.9,660.7,593.9L660.7,593.9z"/>
	</g>
	<g>
		<path class="st2" d="M912.1,595.9c3.4,0,6.3,2.8,6.3,6.3s-2.8,6.3-6.3,6.3s-6.3-2.8-6.3-6.3S908.7,595.9,912.1,595.9 M912.1,593.9
			c-4.6,0-8.3,3.7-8.3,8.3s3.7,8.3,8.3,8.3s8.3-3.7,8.3-8.3C920.4,597.6,916.7,593.9,912.1,593.9L912.1,593.9z"/>
	</g>
	<g>
		<path class="st2" d="M912.1,424.2c3.4,0,6.3,2.8,6.3,6.3s-2.8,6.3-6.3,6.3s-6.3-2.8-6.3-6.3S908.7,424.2,912.1,424.2 M912.1,422.2
			c-4.6,0-8.3,3.7-8.3,8.3c0,4.6,3.7,8.3,8.3,8.3s8.3-3.7,8.3-8.3C920.4,425.9,916.7,422.2,912.1,422.2L912.1,422.2z"/>
	</g>
	<g>
		<circle class="st2" cx="726.9" cy="602.2" r="4.4"/>
		<circle class="st2" cx="743.3" cy="602.2" r="4.4"/>
		<circle class="st2" cx="759.6" cy="602.2" r="4.4"/>
		<circle class="st2" cx="775.9" cy="602.2" r="4.4"/>
		<circle class="st2" cx="792.3" cy="602.2" r="4.4"/>
		<circle class="st2" cx="808.6" cy="602.2" r="4.4"/>
		<circle class="st2" cx="825" cy="602.2" r="4.4"/>
		<circle class="st2" cx="841.3" cy="602.2" r="4.4"/>
	</g>
	<g>
		<circle class="st4" cx="903.9" cy="483.3" r="11.5"/>
		<circle class="st2" cx="903.9" cy="483.3" r="7.1"/>
		<circle class="st4" cx="903.9" cy="527.4" r="15.2"/>
		<circle class="st2" cx="903.9" cy="527.4" r="9.4"/>
		<rect x="902.1" y="489.1" class="st2" width="3.5" height="31.2"/>
	</g>
</g>
</svg>
