<?xml version="1.0" encoding="utf-8"?>
<!-- Generator: Adobe Illustrator 25.2.1, SVG Export Plug-In . SVG Version: 6.00 Build 0)  -->
<svg version="1.1" id="图层_1" xmlns="http://www.w3.org/2000/svg" xmlns:xlink="http://www.w3.org/1999/xlink" x="0px" y="0px"
	 viewBox="0 0 1300 800" style="enable-background:new 0 0 1300 800;" xml:space="preserve">
<style type="text/css">
	.st0{fill:#F6F7F5;}
	.st1{fill:#405140;}
</style>
<g>
	<circle class="st0" cx="500.9" cy="277.9" r="8.9"/>
	<circle class="st0" cx="463.2" cy="215.5" r="8.9"/>
	<path class="st1" d="M542.9,228.2c0,23-11.5,42.6-27.7,50c-1.9,0.9-3.9,1.6-5.9,2.1c-2.7,0.7-5.6,1.1-8.5,1.1c-0.7,0-1.5,0-2.2-0.1
		c-0.7-1.3-1.1-2.7-1.1-4.2c0-1.3,0.3-2.6,0.8-3.8c0.8,0.1,1.6,0.1,2.4,0.1c2.4,0,4.8-0.3,7.1-0.9c1.6-0.4,3.2-1,4.8-1.7
		c13.9-6.2,23.9-23,23.9-42.7c0-25-16-45.3-35.8-45.3c-12.8,0-24,8.5-30.3,21.3c-0.7,1.4-1.3,2.8-1.9,4.2c-1.3,3.3-2.2,6.8-2.8,10.5
		c-0.6,0.1-1.1,0.2-1.7,0.2c-1.7,0-3.2-0.5-4.5-1.2c0.6-3.9,1.6-7.7,2.8-11.3c0.6-1.8,1.3-3.5,2.1-5.2c7.3-15.8,20.8-26.5,36.4-26.5
		C524.1,175,542.9,198.8,542.9,228.2z"/>
	<circle class="st0" cx="602" cy="277.9" r="8.9"/>
	<circle class="st0" cx="564.3" cy="215.5" r="8.9"/>
	<path class="st1" d="M644,228.2c0,23-11.5,42.6-27.7,50c-1.9,0.9-3.9,1.6-5.9,2.1c-2.7,0.7-5.6,1.1-8.5,1.1c-0.7,0-1.5,0-2.2-0.1
		c-0.7-1.3-1.1-2.7-1.1-4.2c0-1.3,0.3-2.6,0.8-3.8c0.8,0.1,1.6,0.1,2.4,0.1c2.4,0,4.8-0.3,7.1-0.9c1.6-0.4,3.2-1,4.8-1.7
		c13.9-6.2,23.9-23,23.9-42.7c0-25-16-45.3-35.8-45.3c-12.8,0-24,8.5-30.3,21.3c-0.7,1.4-1.3,2.8-1.9,4.2c-1.3,3.3-2.2,6.8-2.8,10.5
		c-0.6,0.1-1.1,0.2-1.7,0.2c-1.7,0-3.2-0.5-4.5-1.2c0.6-3.9,1.6-7.7,2.8-11.3c0.6-1.8,1.3-3.5,2.1-5.2c7.3-15.8,20.8-26.5,36.4-26.5
		C625.2,175,644,198.8,644,228.2z"/>
	<circle class="st0" cx="701.1" cy="277.9" r="8.9"/>
	<circle class="st0" cx="663.4" cy="215.5" r="8.9"/>
	<path class="st1" d="M743.1,228.2c0,23-11.5,42.6-27.7,50c-1.9,0.9-3.9,1.6-5.9,2.1c-2.7,0.7-5.6,1.1-8.5,1.1c-0.7,0-1.5,0-2.2-0.1
		c-0.7-1.3-1.1-2.7-1.1-4.2c0-1.3,0.3-2.6,0.8-3.8c0.8,0.1,1.6,0.1,2.4,0.1c2.4,0,4.8-0.3,7.1-0.9c1.6-0.4,3.2-1,4.8-1.7
		c13.9-6.2,23.9-23,23.9-42.7c0-25-16-45.3-35.8-45.3c-12.8,0-24,8.5-30.3,21.3c-0.7,1.4-1.3,2.8-1.9,4.2c-1.3,3.3-2.2,6.8-2.8,10.5
		c-0.6,0.1-1.1,0.2-1.7,0.2c-1.7,0-3.2-0.5-4.5-1.2c0.6-3.9,1.6-7.7,2.8-11.3c0.6-1.8,1.3-3.5,2.1-5.2c7.3-15.8,20.8-26.5,36.4-26.5
		C724.3,175,743.1,198.8,743.1,228.2z"/>
	<circle class="st0" cx="799" cy="277.9" r="8.9"/>
	<circle class="st0" cx="761.4" cy="215.5" r="8.9"/>
	<path class="st1" d="M841.1,228.2c0,23-11.5,42.6-27.7,50c-1.9,0.9-3.9,1.6-5.9,2.1c-2.7,0.7-5.6,1.1-8.5,1.1c-0.7,0-1.5,0-2.2-0.1
		c-0.7-1.3-1.1-2.7-1.1-4.2c0-1.3,0.3-2.6,0.8-3.8c0.8,0.1,1.6,0.1,2.4,0.1c2.4,0,4.8-0.3,7.1-0.9c1.6-0.4,3.2-1,4.8-1.7
		c13.9-6.2,23.9-23,23.9-42.7c0-25-16-45.3-35.8-45.3c-12.8,0-24,8.5-30.3,21.3c-0.7,1.4-1.3,2.8-1.9,4.2c-1.3,3.3-2.2,6.8-2.8,10.5
		c-0.6,0.1-1.1,0.2-1.7,0.2c-1.7,0-3.2-0.5-4.5-1.2c0.6-3.9,1.6-7.7,2.8-11.3c0.6-1.8,1.3-3.5,2.1-5.2C770,185.7,783.5,175,799,175
		C822.3,175,841.1,198.8,841.1,228.2z"/>
</g>
</svg>
